<svg xmlns="http://www.w3.org/2000/svg" viewBox="0 0 226.68 228.79"><g id="Layer_2" data-name="Layer 2"><g id="design"><path d="M226,222.31a10,10,0,0,1-13,5.78,588.07,588.07,0,0,1-100.39-51.27C64,145.66,54,129.33,54,114.4S64,83.14,112.61,52A587.39,587.39,0,0,1,213,.7a10,10,0,0,1,13,5.78h0a10,10,0,0,1-5.68,12.83,567.54,567.54,0,0,0-97,49.51C100.86,83.25,74,102.88,74,114.4s26.86,31.14,49.39,45.58a569,569,0,0,0,97,49.51A10,10,0,0,1,226,222.31Z"/><rect y="51.4" width="20" height="126" rx="10"/></g></g></svg>