<svg xmlns="http://www.w3.org/2000/svg" viewBox="0 0 226.68 228.79"><defs><style>.cls-1{opacity:0.65;}.cls-2{fill:#fff;}</style></defs><g id="Layer_2" data-name="Layer 2"><g id="design"><g class="cls-1"><path class="cls-2" d="M.65,222.31h0a10,10,0,0,1,5.68-12.82,568.89,568.89,0,0,0,97-49.51c22.54-14.44,49.4-34.07,49.4-45.58s-26.86-31.15-49.4-45.58A567.44,567.44,0,0,0,6.33,19.31,10,10,0,0,1,.65,6.48h0A10,10,0,0,1,13.68.7,587.39,587.39,0,0,1,114.07,52c48.64,31.16,58.61,47.49,58.61,62.42s-10,31.26-58.61,62.42A588.07,588.07,0,0,1,13.68,228.09,10,10,0,0,1,.65,222.31Z"/><rect class="cls-2" x="206.68" y="51.4" width="20" height="126" rx="10"/></g></g></g></svg>